<svg width="35" height="35" viewBox="0 0 35 35" fill="none" xmlns="http://www.w3.org/2000/svg">
<path d="M26.3521 12.4104L13.8688 6.16876C5.48335 1.96876 2.04169 5.41043 6.24169 13.7958L7.51043 16.3333C7.87502 17.0771 7.87502 17.9375 7.51043 18.6813L6.24169 21.2042C2.04169 29.5896 5.46877 33.0313 13.8688 28.8313L26.3521 22.5896C31.9521 19.7896 31.9521 15.2104 26.3521 12.4104ZM21.6417 18.5938H13.7667C13.1688 18.5938 12.6729 18.0979 12.6729 17.5C12.6729 16.9021 13.1688 16.4063 13.7667 16.4063H21.6417C22.2396 16.4063 22.7354 16.9021 22.7354 17.5C22.7354 18.0979 22.2396 18.5938 21.6417 18.5938Z" fill="#F5F5F4"/>
</svg>
