<svg width="50" height="50" viewBox="0 0 50 50" fill="none" xmlns="http://www.w3.org/2000/svg">
<path d="M12.5 27.0835C6.74998 27.0835 2.08331 31.7293 2.08331 37.5002C2.08331 43.271 6.74998 47.9168 12.5 47.9168C18.25 47.9168 22.9166 43.2502 22.9166 37.5002C22.9166 31.7502 18.2708 27.0835 12.5 27.0835ZM8.24998 33.2502H12.5C13.2916 33.2502 13.9166 33.896 13.9166 34.6668C13.9166 35.4377 13.2916 36.0835 12.5 36.0835H8.24998C7.45831 36.0835 6.83331 35.4377 6.83331 34.6668C6.83331 33.896 7.45831 33.2502 8.24998 33.2502ZM16.75 41.7502H8.24998C7.45831 41.7502 6.83331 41.1043 6.83331 40.3335C6.83331 39.5627 7.47915 38.9168 8.24998 38.9168H16.7708C17.5625 38.9168 18.1875 39.5627 18.1875 40.3335C18.1875 41.1043 17.5416 41.7502 16.75 41.7502Z" fill="#171717"/>
<path d="M35.4167 6.25H14.5834C8.33335 6.25 4.16669 9.375 4.16669 16.6667V23.2083C4.16669 24.7292 5.72919 25.6875 7.12502 25.0833C9.41669 24.0833 12.0209 23.7083 14.75 24.1458C20.2084 25.0417 24.6667 29.3542 25.7709 34.7708C26.0834 36.3542 26.125 37.8958 25.9167 39.375C25.75 40.6042 26.75 41.6875 27.9792 41.6875H35.4167C41.6667 41.6875 45.8334 38.5625 45.8334 31.2708V16.6667C45.8334 9.375 41.6667 6.25 35.4167 6.25ZM36.3959 17.8958L29.875 23.1042C28.5 24.2083 26.75 24.75 25 24.75C23.25 24.75 21.4792 24.2083 20.125 23.1042L13.6042 17.8958C12.9375 17.3542 12.8334 16.3542 13.3542 15.6875C13.8959 15.0208 14.875 14.8958 15.5417 15.4375L22.0625 20.6458C23.6459 21.9167 26.3334 21.9167 27.9167 20.6458L34.4375 15.4375C35.1042 14.8958 36.1042 15 36.625 15.6875C37.1667 16.3542 37.0625 17.3542 36.3959 17.8958Z" fill="#171717"/>
</svg>
